<?xml version="1.0" encoding="UTF-8" standalone="no" ?>
<!DOCTYPE svg PUBLIC "-//W3C//DTD SVG 1.1//EN" "http://www.w3.org/Graphics/SVG/1.1/DTD/svg11.dtd">
<svg xmlns="http://www.w3.org/2000/svg" xmlns:xlink="http://www.w3.org/1999/xlink" version="1.1" width="500" height="500" viewBox="0 0 500 500" xml:space="preserve">
<desc>Created with Fabric.js 3.6.3</desc>
<defs>
</defs>
<g transform="matrix(2.322247878369868 0 0 2.322247878369868 249.28720389957266 238.16)"  >
<path style="stroke: none; stroke-width: 0; stroke-dasharray: none; stroke-linecap: butt; stroke-dashoffset: 0; stroke-linejoin: miter; stroke-miterlimit: 4; fill: rgb(0,0,0); fill-rule: nonzero; opacity: 1;"  transform=" translate(-50.13022222222223, -50.020500000000006)" d="M 93.569 60.932 V 0.035 l -0.857 0.008 c 0 0 0 0.135 0 0.136 c 0 10.148 -4.383 19.692 -12.35 26.885 c -4.23 3.819 -9.205 6.722 -14.623 8.624 c -0.94 0.246 -1.859 0.534 -2.748 0.872 c -4.059 1.138 -8.327 1.733 -12.698 1.733 c -11.334 0 -22.028 -3.981 -30.112 -11.209 C 12.112 19.868 7.562 10.249 7.367 0 L 6.667 0.043 v 64.255 C 7.393 76.333 17.464 85.9 29.678 85.9 c 1.938 0 3.82 -0.245 5.62 -0.699 c 0.165 -0.042 14.849 14.84 14.849 14.84 L 65 85.191 c 0 0 3.503 0.709 5.625 0.709 c 12.684 0 22.944 -10.318 22.944 -23.003 C 93.569 62.235 93.624 61.579 93.569 60.932 z M 29.674 80.86 c -9.894 0 -17.944 -8.05 -17.944 -17.945 c 0 -1.239 0.126 -2.45 0.367 -3.619 c 1.672 -8.174 8.919 -14.342 17.581 -14.342 c 9.893 0 17.942 8.046 17.945 17.939 c 0 0.002 0 0.004 0 0.004 c 0 0.002 0 0.004 0 0.006 c 0 1.239 -0.127 2.45 -0.369 3.619 C 45.579 74.695 38.333 80.86 29.674 80.86 z M 50.146 92.889 c -1.977 -1.978 -7.167 -7.168 -9.682 -9.682 c 4.147 -2.213 7.538 -5.656 9.687 -9.844 c 2.147 4.186 5.536 7.629 9.679 9.84 C 57.318 85.717 52.125 90.911 50.146 92.889 z M 70.621 80.86 c -9.895 0 -17.944 -8.05 -17.944 -17.945 c 0 -1.384 0.158 -2.731 0.456 -4.026 c 1.285 -5.609 5.209 -10.224 10.39 -12.466 c 0.78 -0.249 1.549 -0.522 2.313 -0.814 c 1.525 -0.423 3.13 -0.654 4.789 -0.654 c 9.289 0 16.951 7.094 17.854 16.151 c 0 1.095 0.091 1.765 0.091 1.792 c 0 1.241 -0.127 2.453 -0.368 3.624 C 86.528 74.694 79.282 80.86 70.621 80.86 z" stroke-linecap="round" />
</g>
<g transform="matrix(0.8 0 0 0.8000000000000002 250.39999999999998 328.02905967706965)"  >
<path style="stroke: none; stroke-width: 1; stroke-dasharray: none; stroke-linecap: butt; stroke-dashoffset: 0; stroke-linejoin: miter; stroke-miterlimit: 4; fill: rgb(255,255,255); fill-rule: nonzero; opacity: 1;"  transform=" translate(-249.95000000000002, -250)" d="M 76.9 288.8 h 346.2 c 21.4 0 38.8 -17.4 38.8 -38.8 v 0 c 0 -21.4 -17.4 -38.8 -38.8 -38.8 H 76.9 C 55.4 211.2 38 228.6 38 250 v 0 C 38 271.4 55.4 288.8 76.9 288.8 z" stroke-linecap="round" />
</g>
<g transform="matrix(1 0 0 1 249.3635273785533 329.17215999869615)" style=""  ><path fill="#000000" opacity="1" d="M-41.89 0.15L-41.89-1.39Q-41.89-3.41-41.39-5.19Q-40.88-6.98-39.62-8.30Q-38.36-9.62-36.22-10.39Q-34.08-11.16-30.84-11.16L-30.84-11.16L-29.77-11.16Q-26.54-11.16-24.40-10.39Q-22.26-9.62-21.00-8.30Q-19.74-6.98-19.23-5.19Q-18.73-3.41-18.73-1.39L-18.73-1.39L-18.73 0.15Q-18.73 2.17-19.23 3.95Q-19.74 5.74-21.00 7.06Q-22.26 8.38-24.40 9.15Q-26.54 9.92-29.77 9.92L-29.77 9.92L-30.84 9.92Q-34.08 9.92-36.22 9.15Q-38.36 8.38-39.62 7.06Q-40.88 5.74-41.39 3.95Q-41.89 2.17-41.89 0.15L-41.89 0.15ZM-36.55-0.62L-36.55-0.62Q-36.55 0.51-36.44 1.56Q-36.34 2.62-35.76 3.42Q-35.18 4.22-33.92 4.70Q-32.66 5.17-30.31 5.17L-30.31 5.17Q-27.96 5.17-26.70 4.70Q-25.44 4.22-24.86 3.42Q-24.28 2.62-24.18 1.56Q-24.07 0.51-24.07-0.62L-24.07-0.62Q-24.07-1.75-24.18-2.79Q-24.28-3.83-24.86-4.63Q-25.44-5.43-26.70-5.91Q-27.96-6.38-30.31-6.38L-30.31-6.38Q-32.66-6.38-33.92-5.91Q-35.18-5.43-35.76-4.63Q-36.34-3.83-36.44-2.79Q-36.55-1.75-36.55-0.62Z"/><path fill="#000000" opacity="1" d="M-12.90-10.57L-8.27-10.57L-4.29 2.53L-0.22-10.57L3.55-10.57L7.53 2.53L11.60-10.57L16.23-10.57L16.23-9.38L9.40 9.33L5.75 9.33L1.59-3.53L-2.42 9.33L-6.07 9.33L-12.90-9.38L-12.90-10.57Z"/><path fill="#000000" opacity="1" d="M42.22 9.33L23.18 9.33L23.18-10.57L28.53-10.57L28.53 4.58L42.22 4.58L42.22 9.33Z"/></g><g transform="matrix(0.93 0 0 -1.42 249.57596833807338 357.95905967706966)"  >
<path style="stroke: none; stroke-width: 1; stroke-dasharray: none; stroke-linecap: butt; stroke-dashoffset: 0; stroke-linejoin: miter; stroke-miterlimit: 4; fill: rgb(0,0,0); fill-rule: nonzero; opacity: 1;"  transform=" translate(-49.95, -50)" d="M 91.7 49 H 8.3 c -0.6 0 -1 0.4 -1 1 s 0.4 1 1 1 h 83.3 c 0.6 0 1 -0.4 1 -1 S 92.2 49 91.7 49 z" stroke-linecap="round" />
</g>
<g transform="matrix(1 0 0 1 248.49239011694644 376.4941773153828)" style=""  ><path fill="#000000" opacity="1" d="M-128.55 2.23L-129.71 2.23L-132.08-1.08L-132.08 3.96L-134.35 3.96L-134.35-4.48L-132.08-4.48L-129.13-0.16L-126.18-4.48L-123.91-4.48L-123.91 3.96L-126.18 3.96L-126.18-1.08L-128.55 2.23Z"/><path fill="#000000" opacity="1" d="M-120.55 3.96L-122.59 3.96L-122.59 3.45L-118.84-4.48L-116.57-4.48L-112.81 3.45L-112.81 3.96L-114.86 3.96L-115.59 2.32L-119.83 2.32L-120.55 3.96ZM-118.99 0.43L-116.42 0.43L-117.70-2.46L-118.99 0.43Z"/><path fill="#000000" opacity="1" d="M-102.80 3.96L-104.99 3.96L-106.68 1.31Q-107.36 1.31-107.99 1.30Q-108.62 1.29-109.22 1.19L-109.22 1.19L-109.22 3.96L-111.49 3.96L-111.49-4.48Q-110.41-4.61-109.22-4.67Q-108.03-4.74-106.88-4.74L-106.88-4.74L-106.53-4.74Q-105.47-4.74-104.78-4.52Q-104.08-4.29-103.67-3.92Q-103.25-3.54-103.09-3.03Q-102.92-2.53-102.92-1.96L-102.92-1.96L-102.92-1.46Q-102.92-0.67-103.24-0.02Q-103.55 0.63-104.36 0.98L-104.36 0.98L-102.80 3.45L-102.80 3.96ZM-106.85-2.72L-106.85-2.72Q-107.30-2.72-107.94-2.69Q-108.59-2.67-109.22-2.61L-109.22-2.61L-109.22-0.82Q-108.63-0.74-108.10-0.72Q-107.57-0.70-107.24-0.70L-107.24-0.70Q-106.49-0.70-106.07-0.77Q-105.66-0.84-105.46-0.98Q-105.27-1.12-105.23-1.33Q-105.19-1.55-105.19-1.85L-105.19-1.85Q-105.19-2.01-105.22-2.17Q-105.24-2.33-105.40-2.46Q-105.56-2.58-105.90-2.65Q-106.24-2.72-106.85-2.72Z"/><path fill="#000000" opacity="1" d="M-101.15-4.48L-98.88-4.48L-98.88-1.21L-97.43-1.21L-94.68-4.48L-92.47-4.48L-92.47-3.98L-95.58-0.26L-92.47 3.45L-92.47 3.96L-94.68 3.96L-97.33 0.81L-98.88 0.81L-98.88 3.96L-101.15 3.96L-101.15-4.48Z"/><path fill="#000000" opacity="1" d="M-83.00-4.48L-83.00-2.47L-88.81-2.47L-88.81-1.21L-84.26-1.21L-84.26 0.81L-88.81 0.81L-88.81 1.94L-83.00 1.94L-83.00 3.96L-91.08 3.96L-91.08-4.48L-83.00-4.48Z"/><path fill="#000000" opacity="1" d="M-76.25 3.96L-78.52 3.96L-78.52-2.47L-81.79-2.47L-81.79-4.48L-72.96-4.48L-72.96-2.47L-76.25-2.47L-76.25 3.96Z"/><path fill="#000000" opacity="1" d="M-63.07-1.71L-63.07-1.21Q-63.07-0.58-63.23-0.03Q-63.38 0.52-63.76 0.93Q-64.14 1.34-64.79 1.58Q-65.44 1.82-66.42 1.82L-66.42 1.82L-66.77 1.82Q-67.45 1.82-68.10 1.80Q-68.75 1.79-69.37 1.69L-69.37 1.69L-69.37 3.96L-71.64 3.96L-71.64-4.48Q-70.55-4.61-69.36-4.67Q-68.17-4.74-67.03-4.74L-67.03-4.74L-66.67-4.74Q-65.61-4.74-64.92-4.50Q-64.23-4.26-63.81-3.85Q-63.40-3.44-63.23-2.88Q-63.07-2.33-63.07-1.71L-63.07-1.71ZM-67.13-0.20L-67.13-0.20Q-66.46-0.20-66.09-0.29Q-65.73-0.39-65.56-0.56Q-65.39-0.73-65.36-0.96Q-65.34-1.18-65.34-1.46L-65.34-1.46Q-65.34-1.74-65.36-1.97Q-65.39-2.20-65.55-2.37Q-65.72-2.53-66.06-2.63Q-66.40-2.72-67.04-2.72L-67.04-2.72Q-67.44-2.72-68.09-2.69Q-68.74-2.67-69.37-2.61L-69.37-2.61L-69.37-0.31Q-68.78-0.24-68.25-0.22Q-67.72-0.20-67.13-0.20Z"/><path fill="#000000" opacity="1" d="M-53.46 3.96L-61.53 3.96L-61.53-4.48L-59.26-4.48L-59.26 1.94L-53.46 1.94L-53.46 3.96Z"/><path fill="#000000" opacity="1" d="M-50.20 3.96L-52.25 3.96L-52.25 3.45L-48.49-4.48L-46.22-4.48L-42.47 3.45L-42.47 3.96L-44.51 3.96L-45.24 2.32L-49.49 2.32L-50.20 3.96ZM-48.64 0.43L-46.07 0.43L-47.36-2.46L-48.64 0.43Z"/><path fill="#000000" opacity="1" d="M-41.70 0.06L-41.70-0.59Q-41.70-1.45-41.49-2.20Q-41.27-2.96-40.75-3.52Q-40.24-4.08-39.36-4.41Q-38.47-4.74-37.14-4.74L-37.14-4.74L-36.68-4.74Q-35.83-4.74-35.02-4.63Q-34.22-4.52-33.43-4.32L-33.43-4.32L-33.43-2.27Q-33.88-2.39-34.32-2.48Q-34.77-2.57-35.20-2.63Q-35.64-2.68-36.04-2.71Q-36.43-2.73-36.75-2.73L-36.75-2.73Q-37.73-2.73-38.27-2.55Q-38.80-2.37-39.05-2.04Q-39.29-1.71-39.34-1.26Q-39.38-0.80-39.38-0.26L-39.38-0.26Q-39.38 0.28-39.34 0.73Q-39.29 1.19-39.05 1.52Q-38.80 1.85-38.27 2.04Q-37.73 2.22-36.75 2.22L-36.75 2.22Q-36.43 2.22-36.04 2.19Q-35.64 2.17-35.20 2.11Q-34.77 2.06-34.32 1.96Q-33.88 1.87-33.43 1.74L-33.43 1.74L-33.43 3.81Q-34.22 4.00-35.02 4.10Q-35.83 4.21-36.68 4.21L-36.68 4.21L-37.14 4.21Q-38.47 4.21-39.36 3.88Q-40.24 3.55-40.75 2.99Q-41.27 2.43-41.49 1.68Q-41.70 0.92-41.70 0.06L-41.70 0.06Z"/><path fill="#000000" opacity="1" d="M-23.97-4.48L-23.97-2.47L-29.78-2.47L-29.78-1.21L-25.23-1.21L-25.23 0.81L-29.78 0.81L-29.78 1.94L-23.97 1.94L-23.97 3.96L-32.05 3.96L-32.05-4.48L-23.97-4.48Z"/><path fill="#000000" opacity="1" d=""/><path fill="#000000" opacity="1" d="M-11.12 3.96L-19.20 3.96L-19.20-4.48L-16.93-4.48L-16.93 1.94L-11.12 1.94L-11.12 3.96Z"/><path fill="#000000" opacity="1" d="M-9.82 0.06L-9.82-0.59Q-9.82-1.45-9.61-2.20Q-9.39-2.96-8.86-3.52Q-8.32-4.08-7.42-4.41Q-6.51-4.74-5.13-4.74L-5.13-4.74L-4.68-4.74Q-3.31-4.74-2.40-4.41Q-1.49-4.08-0.96-3.52Q-0.42-2.96-0.21-2.20Q0.01-1.45 0.01-0.59L0.01-0.59L0.01 0.06Q0.01 0.92-0.21 1.68Q-0.42 2.43-0.96 2.99Q-1.49 3.55-2.40 3.88Q-3.31 4.21-4.68 4.21L-4.68 4.21L-5.13 4.21Q-6.51 4.21-7.42 3.88Q-8.32 3.55-8.86 2.99Q-9.39 2.43-9.61 1.68Q-9.82 0.92-9.82 0.06L-9.82 0.06ZM-7.55-0.26L-7.55-0.26Q-7.55 0.22-7.51 0.66Q-7.47 1.11-7.22 1.45Q-6.97 1.79-6.44 1.99Q-5.90 2.19-4.91 2.19L-4.91 2.19Q-3.91 2.19-3.38 1.99Q-2.84 1.79-2.60 1.45Q-2.35 1.11-2.31 0.66Q-2.26 0.22-2.26-0.26L-2.26-0.26Q-2.26-0.74-2.31-1.18Q-2.35-1.62-2.60-1.96Q-2.84-2.30-3.38-2.51Q-3.91-2.71-4.91-2.71L-4.91-2.71Q-5.90-2.71-6.44-2.51Q-6.97-2.30-7.22-1.96Q-7.47-1.62-7.51-1.18Q-7.55-0.74-7.55-0.26Z"/><path fill="#000000" opacity="1" d="M8.40-0.28L10.67-0.28L10.67 3.81Q9.77 4.00 8.83 4.10Q7.88 4.21 6.91 4.21L6.91 4.21L6.46 4.21Q5.01 4.21 4.06 3.88Q3.11 3.55 2.54 2.99Q1.97 2.43 1.75 1.68Q1.52 0.92 1.52 0.06L1.52 0.06L1.52-0.59Q1.52-1.45 1.75-2.20Q1.97-2.96 2.54-3.52Q3.11-4.08 4.06-4.41Q5.01-4.74 6.46-4.74L6.46-4.74L6.91-4.74Q7.82-4.74 8.70-4.63Q9.58-4.52 10.41-4.32L10.41-4.32L10.41-2.27Q9.48-2.52 8.52-2.63Q7.55-2.73 6.85-2.73L6.85-2.73Q5.71-2.73 5.10-2.55Q4.49-2.37 4.21-2.04Q3.92-1.71 3.88-1.26Q3.84-0.80 3.84-0.26L3.84-0.26Q3.84 0.28 3.88 0.73Q3.92 1.19 4.21 1.52Q4.49 1.85 5.10 2.04Q5.71 2.22 6.85 2.22L6.85 2.22Q7.53 2.22 8.40 2.14L8.40 2.14L8.40-0.28Z"/><path fill="#000000" opacity="1" d="M12.43-4.48L14.70-4.48L14.70 3.96L12.43 3.96L12.43-4.48Z"/><path fill="#000000" opacity="1" d="M20.51 2.19L20.51 2.19Q21.19 2.19 21.57 2.12Q21.96 2.06 22.15 1.95Q22.35 1.84 22.40 1.71Q22.45 1.58 22.45 1.46L22.45 1.46Q22.45 1.24 22.34 1.10Q22.23 0.97 22.00 0.90Q21.77 0.82 21.38 0.79Q21.00 0.76 20.46 0.75L20.46 0.75Q20.14 0.73 19.71 0.71Q19.28 0.68 18.83 0.60Q18.38 0.52 17.94 0.36Q17.50 0.20 17.15-0.08Q16.80-0.36 16.59-0.79Q16.37-1.22 16.37-1.84L16.37-1.84L16.37-2.00Q16.37-2.54 16.57-3.04Q16.76-3.54 17.24-3.92Q17.71-4.29 18.51-4.52Q19.31-4.74 20.51-4.74L20.51-4.74L20.96-4.74Q21.83-4.74 22.65-4.63Q23.47-4.52 24.25-4.32L24.25-4.32L24.25-2.24Q23.33-2.46 22.43-2.58Q21.53-2.71 20.59-2.71L20.59-2.71Q19.91-2.71 19.52-2.64Q19.13-2.57 18.94-2.46Q18.74-2.35 18.69-2.23Q18.64-2.12 18.64-2.00L18.64-2.00Q18.64-1.77 18.75-1.64Q18.86-1.50 19.10-1.42Q19.33-1.35 19.71-1.31Q20.09-1.28 20.62-1.27L20.62-1.27Q20.92-1.26 21.34-1.24Q21.75-1.22 22.21-1.14Q22.67-1.06 23.12-0.89Q23.57-0.73 23.92-0.45Q24.27-0.16 24.49 0.27Q24.71 0.71 24.71 1.32L24.71 1.32L24.71 1.49Q24.71 2.03 24.52 2.52Q24.32 3.01 23.85 3.39Q23.37 3.77 22.57 3.99Q21.78 4.21 20.57 4.21L20.57 4.21L20.12 4.21Q19.12 4.21 18.18 4.10Q17.24 4.00 16.34 3.81L16.34 3.81L16.34 1.69Q17.36 1.92 18.45 2.06Q19.54 2.19 20.51 2.19Z"/><path fill="#000000" opacity="1" d="M31.28 3.96L29.01 3.96L29.01-2.47L25.74-2.47L25.74-4.48L34.57-4.48L34.57-2.47L31.28-2.47L31.28 3.96Z"/><path fill="#000000" opacity="1" d="M35.89-4.48L38.16-4.48L38.16 3.96L35.89 3.96L35.89-4.48Z"/><path fill="#000000" opacity="1" d="M39.80 0.06L39.80-0.59Q39.80-1.45 40.01-2.20Q40.23-2.96 40.74-3.52Q41.26-4.08 42.14-4.41Q43.02-4.74 44.36-4.74L44.36-4.74L44.81-4.74Q45.67-4.74 46.48-4.63Q47.28-4.52 48.06-4.32L48.06-4.32L48.06-2.27Q47.62-2.39 47.17-2.48Q46.73-2.57 46.29-2.63Q45.86-2.68 45.46-2.71Q45.06-2.73 44.75-2.73L44.75-2.73Q43.77-2.73 43.23-2.55Q42.70-2.37 42.45-2.04Q42.20-1.71 42.16-1.26Q42.12-0.80 42.12-0.26L42.12-0.26Q42.12 0.28 42.16 0.73Q42.20 1.19 42.45 1.52Q42.70 1.85 43.23 2.04Q43.77 2.22 44.75 2.22L44.75 2.22Q45.06 2.22 45.46 2.19Q45.86 2.17 46.29 2.11Q46.73 2.06 47.17 1.96Q47.62 1.87 48.06 1.74L48.06 1.74L48.06 3.81Q47.28 4.00 46.48 4.10Q45.67 4.21 44.81 4.21L44.81 4.21L44.36 4.21Q43.02 4.21 42.14 3.88Q41.26 3.55 40.74 2.99Q40.23 2.43 40.01 1.68Q39.80 0.92 39.80 0.06L39.80 0.06Z"/><path fill="#000000" opacity="1" d="M53.68 2.19L53.68 2.19Q54.36 2.19 54.75 2.12Q55.13 2.06 55.33 1.95Q55.52 1.84 55.57 1.71Q55.62 1.58 55.62 1.46L55.62 1.46Q55.62 1.24 55.52 1.10Q55.41 0.97 55.18 0.90Q54.94 0.82 54.56 0.79Q54.17 0.76 53.63 0.75L53.63 0.75Q53.32 0.73 52.89 0.71Q52.46 0.68 52.01 0.60Q51.55 0.52 51.11 0.36Q50.67 0.20 50.32-0.08Q49.98-0.36 49.76-0.79Q49.55-1.22 49.55-1.84L49.55-1.84L49.55-2.00Q49.55-2.54 49.74-3.04Q49.94-3.54 50.41-3.92Q50.89-4.29 51.69-4.52Q52.49-4.74 53.68-4.74L53.68-4.74L54.14-4.74Q55.01-4.74 55.82-4.63Q56.64-4.52 57.42-4.32L57.42-4.32L57.42-2.24Q56.50-2.46 55.60-2.58Q54.70-2.71 53.77-2.71L53.77-2.71Q53.09-2.71 52.70-2.64Q52.31-2.57 52.11-2.46Q51.92-2.35 51.87-2.23Q51.82-2.12 51.82-2.00L51.82-2.00Q51.82-1.77 51.92-1.64Q52.03-1.50 52.27-1.42Q52.51-1.35 52.89-1.31Q53.27-1.28 53.80-1.27L53.80-1.27Q54.10-1.26 54.51-1.24Q54.93-1.22 55.39-1.14Q55.85-1.06 56.30-0.89Q56.74-0.73 57.10-0.45Q57.45-0.16 57.67 0.27Q57.89 0.71 57.89 1.32L57.89 1.32L57.89 1.49Q57.89 2.03 57.70 2.52Q57.50 3.01 57.02 3.39Q56.54 3.77 55.75 3.99Q54.95 4.21 53.75 4.21L53.75 4.21L53.29 4.21Q52.30 4.21 51.36 4.10Q50.42 4.00 49.51 3.81L49.51 3.81L49.51 1.69Q50.53 1.92 51.62 2.06Q52.71 2.19 53.68 2.19Z"/><path fill="#000000" opacity="1" d=""/><path fill="#000000" opacity="1" d="M62.68 0.06L62.68-0.59Q62.68-1.45 62.89-2.20Q63.11-2.96 63.62-3.52Q64.14-4.08 65.02-4.41Q65.90-4.74 67.24-4.74L67.24-4.74L67.69-4.74Q68.55-4.74 69.36-4.63Q70.16-4.52 70.94-4.32L70.94-4.32L70.94-2.27Q70.50-2.39 70.06-2.48Q69.61-2.57 69.17-2.63Q68.74-2.68 68.34-2.71Q67.95-2.73 67.63-2.73L67.63-2.73Q66.65-2.73 66.11-2.55Q65.58-2.37 65.33-2.04Q65.09-1.71 65.04-1.26Q65.00-0.80 65.00-0.26L65.00-0.26Q65.00 0.28 65.04 0.73Q65.09 1.19 65.33 1.52Q65.58 1.85 66.11 2.04Q66.65 2.22 67.63 2.22L67.63 2.22Q67.95 2.22 68.34 2.19Q68.74 2.17 69.17 2.11Q69.61 2.06 70.06 1.96Q70.50 1.87 70.94 1.74L70.94 1.74L70.94 3.81Q70.16 4.00 69.36 4.10Q68.55 4.21 67.69 4.21L67.69 4.21L67.24 4.21Q65.90 4.21 65.02 3.88Q64.14 3.55 63.62 2.99Q63.11 2.43 62.89 1.68Q62.68 0.92 62.68 0.06L62.68 0.06Z"/><path fill="#000000" opacity="1" d="M72.20 0.06L72.20-0.59Q72.20-1.45 72.42-2.20Q72.63-2.96 73.17-3.52Q73.70-4.08 74.61-4.41Q75.52-4.74 76.89-4.74L76.89-4.74L77.35-4.74Q78.72-4.74 79.63-4.41Q80.53-4.08 81.07-3.52Q81.60-2.96 81.82-2.20Q82.03-1.45 82.03-0.59L82.03-0.59L82.03 0.06Q82.03 0.92 81.82 1.68Q81.60 2.43 81.07 2.99Q80.53 3.55 79.63 3.88Q78.72 4.21 77.35 4.21L77.35 4.21L76.89 4.21Q75.52 4.21 74.61 3.88Q73.70 3.55 73.17 2.99Q72.63 2.43 72.42 1.68Q72.20 0.92 72.20 0.06L72.20 0.06ZM74.47-0.26L74.47-0.26Q74.47 0.22 74.52 0.66Q74.56 1.11 74.81 1.45Q75.05 1.79 75.59 1.99Q76.12 2.19 77.12 2.19L77.12 2.19Q78.11 2.19 78.65 1.99Q79.18 1.79 79.43 1.45Q79.68 1.11 79.72 0.66Q79.76 0.22 79.76-0.26L79.76-0.26Q79.76-0.74 79.72-1.18Q79.68-1.62 79.43-1.96Q79.18-2.30 78.65-2.51Q78.11-2.71 77.12-2.71L77.12-2.71Q76.12-2.71 75.59-2.51Q75.05-2.30 74.81-1.96Q74.56-1.62 74.52-1.18Q74.47-0.74 74.47-0.26Z"/><path fill="#000000" opacity="1" d="M89.47 2.23L88.31 2.23L85.94-1.08L85.94 3.96L83.67 3.96L83.67-4.48L85.94-4.48L88.89-0.16L91.84-4.48L94.10-4.48L94.10 3.96L91.84 3.96L91.84-1.08L89.47 2.23Z"/><path fill="#000000" opacity="1" d="M104.44-1.71L104.44-1.21Q104.44-0.58 104.28-0.03Q104.12 0.52 103.74 0.93Q103.36 1.34 102.72 1.58Q102.07 1.82 101.08 1.82L101.08 1.82L100.73 1.82Q100.05 1.82 99.40 1.80Q98.75 1.79 98.14 1.69L98.14 1.69L98.14 3.96L95.87 3.96L95.87-4.48Q96.95-4.61 98.14-4.67Q99.33-4.74 100.48-4.74L100.48-4.74L100.83-4.74Q101.89-4.74 102.58-4.50Q103.28-4.26 103.69-3.85Q104.11-3.44 104.27-2.88Q104.44-2.33 104.44-1.71L104.44-1.71ZM100.38-0.20L100.38-0.20Q101.05-0.20 101.41-0.29Q101.78-0.39 101.95-0.56Q102.12-0.73 102.14-0.96Q102.17-1.18 102.17-1.46L102.17-1.46Q102.17-1.74 102.14-1.97Q102.12-2.20 101.95-2.37Q101.79-2.53 101.45-2.63Q101.11-2.72 100.47-2.72L100.47-2.72Q100.06-2.72 99.41-2.69Q98.77-2.67 98.14-2.61L98.14-2.61L98.14-0.31Q98.73-0.24 99.26-0.22Q99.79-0.20 100.38-0.20Z"/><path fill="#000000" opacity="1" d="M106.77 3.96L104.72 3.96L104.72 3.45L108.48-4.48L110.75-4.48L114.50 3.45L114.50 3.96L112.46 3.96L111.73 2.32L107.48 2.32L106.77 3.96ZM108.33 0.43L110.90 0.43L109.61-2.46L108.33 0.43Z"/><path fill="#000000" opacity="1" d="M118.09-4.48L122.52 0.93L122.52-4.48L124.78-4.48L124.78 3.96L122.52 3.96L118.09-1.46L118.09 3.96L115.83 3.96L115.83-4.48L118.09-4.48Z"/><path fill="#000000" opacity="1" d="M129.41 3.96L129.41 0.82L126.11-3.98L126.11-4.48L128.34-4.48L130.54-0.98L132.76-4.48L134.98-4.48L134.98-3.98L131.68 0.82L131.68 3.96L129.41 3.96Z"/></g></svg>